<?xml version="1.0" encoding="UTF-8" standalone="no"?>
<!-- Created with Inkscape (http://www.inkscape.org/) -->

<svg
   width="210mm"
   height="297mm"
   viewBox="0 0 210 297"
   version="1.1"
   id="svg1"
   inkscape:export-filename="button.svg"
   inkscape:export-xdpi="96"
   inkscape:export-ydpi="96"
   inkscape:version="1.3.1 (91b66b0783, 2023-11-16)"
   sodipodi:docname="drawing.svg"
   xmlns:inkscape="http://www.inkscape.org/namespaces/inkscape"
   xmlns:sodipodi="http://sodipodi.sourceforge.net/DTD/sodipodi-0.dtd"
   xmlns="http://www.w3.org/2000/svg"
   xmlns:svg="http://www.w3.org/2000/svg">
  <sodipodi:namedview
     id="namedview1"
     pagecolor="#505050"
     bordercolor="#ffffff"
     borderopacity="1"
     inkscape:showpageshadow="0"
     inkscape:pageopacity="0"
     inkscape:pagecheckerboard="1"
     inkscape:deskcolor="#505050"
     inkscape:document-units="mm"
     showguides="true"
     inkscape:zoom="2.008211"
     inkscape:cx="-263.41853"
     inkscape:cy="98.346238"
     inkscape:window-width="1920"
     inkscape:window-height="1009"
     inkscape:window-x="-8"
     inkscape:window-y="-8"
     inkscape:window-maximized="1"
     inkscape:current-layer="layer1">
    <sodipodi:guide
       position="-14.063759,190.74639"
       orientation="0.70710678,-0.70710678"
       id="guide1"
       inkscape:locked="false" />
    <sodipodi:guide
       position="-76.668524,169.87814"
       orientation="0.70710678,-0.70710678"
       id="guide2"
       inkscape:locked="false" />
    <sodipodi:guide
       position="-76.668524,190.7464"
       orientation="0,-1"
       id="guide3"
       inkscape:locked="false" />
    <sodipodi:guide
       position="-76.668522,169.87814"
       orientation="0,-1"
       id="guide4"
       inkscape:locked="false" />
  </sodipodi:namedview>
  <defs
     id="defs1" />
  <g
     inkscape:label="Layer 1"
     inkscape:groupmode="layer"
     id="layer1">
    <rect
       style="fill:#ffffff;stroke-width:0.264583;fill-opacity:1"
       id="rect1"
       width="62.604767"
       height="20.868256"
       x="-76.668526"
       y="106.25361" />
    <path
       style="fill:#ffffff;fill-opacity:1;stroke-width:0.264583"
       d="m -86.264191,136.71753 -20.868259,20.86826 h 41.736515 l 20.868259,-20.86826 z"
       id="path4" />
    <path
       style="fill:#ffffff;fill-opacity:1;stroke-width:0.264583"
       d="m -132.6588,136.71753 -20.86826,20.86826 h 41.73652 l 20.868259,-20.86826 z"
       id="path5" />
    <path
       style="fill:#ffffff;fill-opacity:1;stroke-width:0.264583"
       d="m -126.16415,81.048073 c 0,0 -7.79281,7.546897 -6.52133,9.036699 1.42246,1.666706 40.855159,-0.698714 40.855159,-0.698714 10.549566,-4.351794 21.873418,-10.411433 17.74365,-10.946519 -9.690958,-2.306277 -40.393479,-0.547479 -52.077479,2.608534 z"
       id="path6"
       sodipodi:nodetypes="csccc" />
    <path
       style="fill:#ffffff;fill-opacity:1;stroke-width:0.264583"
       d="m -55.67749,29.997258 c 0,0 -7.79281,7.546897 -6.52133,9.036699 1.42246,1.666706 40.855156,-0.698714 40.855156,-0.698714 C -10.794098,33.983449 0.52975419,27.92381 -3.6000138,27.388724 -13.290972,25.082447 -43.99349,26.841245 -55.67749,29.997258 Z"
       id="path7"
       sodipodi:nodetypes="csccc" />
    <path
       style="fill:#ffffff;fill-opacity:1;stroke-width:0.264583"
       d="m -120.38811,45.087596 c 0,0 -7.79281,7.546897 -6.52133,9.036699 1.42246,1.666706 40.855154,-0.698714 40.855154,-0.698714 10.549566,-4.351794 21.873418,-10.411433 17.74365,-10.946519 -9.690958,-2.306277 -40.393474,-0.547479 -52.077474,2.608534 z"
       id="path8"
       sodipodi:nodetypes="csccc" />
    <path
       style="fill:#ffffff;fill-opacity:1;stroke-width:0.264583"
       d="m -124.11458,25.896253 c 0,0 -7.79281,7.546897 -6.52133,9.036699 1.42246,1.666706 40.85515,-0.698714 40.85515,-0.698714 10.549566,-4.351794 21.873418,-10.411433 17.74365,-10.946519 -9.690958,-2.306277 -40.39347,-0.547479 -52.07747,2.608534 z"
       id="path9"
       sodipodi:nodetypes="csccc" />
  </g>
</svg>
